<svg width="32" height="33" viewBox="0 0 32 33" fill="none" xmlns="http://www.w3.org/2000/svg">
<path d="M16 2.28906C10.4862 2.28906 6 6.57969 6 11.8516C6 14.3622 7.14437 17.7009 9.40125 21.7753C11.2137 25.0466 13.3106 28.0047 14.4012 29.4766C14.5855 29.7281 14.8265 29.9326 15.1046 30.0736C15.3827 30.2145 15.6901 30.288 16.0019 30.288C16.3137 30.288 16.6211 30.2145 16.8992 30.0736C17.1772 29.9326 17.4182 29.7281 17.6025 29.4766C18.6913 28.0047 20.79 25.0466 22.6025 21.7753C24.8556 17.7022 26 14.3634 26 11.8516C26 6.57969 21.5138 2.28906 16 2.28906ZM16 16.2891C15.2089 16.2891 14.4355 16.0545 13.7777 15.6149C13.1199 15.1754 12.6072 14.5507 12.3045 13.8198C12.0017 13.0889 11.9225 12.2846 12.0769 11.5087C12.2312 10.7328 12.6122 10.02 13.1716 9.46064C13.731 8.90123 14.4437 8.52026 15.2196 8.36592C15.9956 8.21158 16.7998 8.29079 17.5307 8.59354C18.2616 8.89629 18.8864 9.40899 19.3259 10.0668C19.7654 10.7246 20 11.4979 20 12.2891C19.9988 13.3496 19.577 14.3663 18.8271 15.1162C18.0773 15.8661 17.0605 16.2879 16 16.2891Z" fill="#D39326"/>
</svg>
