<svg width="20" height="21" viewBox="0 0 20 21" fill="none" xmlns="http://www.w3.org/2000/svg">
<path d="M15.8333 16.7988H4.16667V7.63216H15.8333M13.3333 1.79883V3.46549H6.66667V1.79883H5V3.46549H4.16667C3.24167 3.46549 2.5 4.20716 2.5 5.13216V16.7988C2.5 17.2409 2.67559 17.6648 2.98816 17.9773C3.30072 18.2899 3.72464 18.4655 4.16667 18.4655H15.8333C16.2754 18.4655 16.6993 18.2899 17.0118 17.9773C17.3244 17.6648 17.5 17.2409 17.5 16.7988V5.13216C17.5 4.69013 17.3244 4.26621 17.0118 3.95365C16.6993 3.64109 16.2754 3.46549 15.8333 3.46549H15V1.79883M14.1667 10.9655H10V15.1322H14.1667V10.9655Z" fill="#F1F1F3"/>
</svg>
