<svg width="32" height="33" viewBox="0 0 32 33" fill="none" xmlns="http://www.w3.org/2000/svg">
<path d="M26.6665 5.62305H5.33317C3.8665 5.62305 2.67984 6.82305 2.67984 8.28971L2.6665 24.2897C2.6665 25.7564 3.8665 26.9564 5.33317 26.9564H26.6665C28.1332 26.9564 29.3332 25.7564 29.3332 24.2897V8.28971C29.3332 6.82305 28.1332 5.62305 26.6665 5.62305ZM26.1332 11.2897L16.7065 17.183C16.2798 17.4497 15.7198 17.4497 15.2932 17.183L5.8665 11.2897C5.73281 11.2147 5.61573 11.1133 5.52236 10.9917C5.42898 10.87 5.36125 10.7308 5.32327 10.5822C5.28529 10.4337 5.27784 10.279 5.30138 10.1275C5.32492 9.97595 5.37895 9.8308 5.46021 9.70078C5.54147 9.57076 5.64827 9.45859 5.77414 9.37104C5.90001 9.28349 6.04233 9.22239 6.1925 9.19144C6.34266 9.16049 6.49755 9.16034 6.64778 9.19098C6.79801 9.22162 6.94046 9.28242 7.0665 9.36971L15.9998 14.9564L24.9332 9.36971C25.0592 9.28242 25.2017 9.22162 25.3519 9.19098C25.5021 9.16034 25.657 9.16049 25.8072 9.19144C25.9573 9.22239 26.0997 9.28349 26.2255 9.37104C26.3514 9.45859 26.4582 9.57076 26.5395 9.70078C26.6207 9.8308 26.6748 9.97595 26.6983 10.1275C26.7218 10.279 26.7144 10.4337 26.6764 10.5822C26.6384 10.7308 26.5707 10.87 26.4773 10.9917C26.3839 11.1133 26.2669 11.2147 26.1332 11.2897Z" fill="#D39326"/>
</svg>
