<svg width="20" height="21" viewBox="0 0 20 21" fill="none" xmlns="http://www.w3.org/2000/svg">
<path d="M10 2.21484C6.55391 2.21484 3.75 4.89648 3.75 8.19141C3.75 9.76055 4.46523 11.8473 5.87578 14.3938C7.00859 16.4383 8.31914 18.2871 9.00078 19.207C9.11596 19.3642 9.26656 19.492 9.44037 19.5802C9.61418 19.6683 9.8063 19.7142 10.0012 19.7142C10.196 19.7142 10.3882 19.6683 10.562 19.5802C10.7358 19.492 10.8864 19.3642 11.0016 19.207C11.682 18.2871 12.9938 16.4383 14.1266 14.3938C15.5348 11.848 16.25 9.76133 16.25 8.19141C16.25 4.89648 13.4461 2.21484 10 2.21484ZM10 10.9648C9.50555 10.9648 9.0222 10.8182 8.61107 10.5435C8.19995 10.2688 7.87952 9.87837 7.6903 9.42155C7.50108 8.96474 7.45157 8.46207 7.54804 7.97712C7.6445 7.49217 7.8826 7.04671 8.23223 6.69708C8.58186 6.34745 9.02732 6.10934 9.51227 6.01288C9.99723 5.91642 10.4999 5.96593 10.9567 6.15515C11.4135 6.34436 11.804 6.6648 12.0787 7.07592C12.3534 7.48704 12.5 7.97039 12.5 8.46484C12.4993 9.12766 12.2357 9.76313 11.767 10.2318C11.2983 10.7005 10.6628 10.9641 10 10.9648Z" fill="#F1F1F3"/>
</svg>
