<svg width="49" height="39" viewBox="0 0 49 39" fill="none" xmlns="http://www.w3.org/2000/svg">
<path d="M1.01728 34.2305C5.69012 28.9496 8.63414 23.6687 10.0185 18.3939C4.82572 18.3939 0.666504 14.1359 0.666504 9.02749C0.666504 4.25802 4.65033 0 10.1876 0C16.7646 0 20.7485 5.79238 20.7485 13.6244C20.7485 20.4397 17.8044 26.2259 7.41895 39L1.01102 34.2305H1.01728ZM28.9353 34.2305C33.6082 28.9496 36.5522 23.6687 37.9365 18.3939C32.7438 18.3939 28.5846 14.1359 28.5846 9.02749C28.5846 4.25802 32.5684 0 38.1056 0C44.6827 0 48.6665 5.79238 48.6665 13.6244C48.6665 20.4397 45.7225 26.2259 35.337 39L28.9291 34.2305H28.9353Z" fill="#D39326"/>
</svg>
