<svg width="32" height="33" viewBox="0 0 32 33" fill="none" xmlns="http://www.w3.org/2000/svg">
<path d="M17.3708 2.95508C18.8708 2.95908 19.6321 2.96708 20.2894 2.98574L20.5481 2.99508C20.8468 3.00574 21.1414 3.01908 21.4974 3.03508C22.9161 3.10174 23.8841 3.32574 24.7334 3.65508C25.6134 3.99374 26.3548 4.45241 27.0961 5.19241C27.7744 5.85872 28.299 6.66504 28.6334 7.55508C28.9628 8.40441 29.1868 9.37241 29.2534 10.7924C29.2694 11.1471 29.2828 11.4417 29.2934 11.7417L29.3014 12.0004C29.3214 12.6564 29.3294 13.4177 29.3321 14.9177L29.3334 15.9124V17.6591C29.3367 18.6316 29.3265 19.6042 29.3028 20.5764L29.2948 20.8351C29.2841 21.1351 29.2708 21.4297 29.2548 21.7844C29.1881 23.2044 28.9614 24.1711 28.6334 25.0217C28.299 25.9118 27.7744 26.7181 27.0961 27.3844C26.4298 28.0627 25.6235 28.5873 24.7334 28.9217C23.8841 29.2511 22.9161 29.4751 21.4974 29.5417L20.5481 29.5817L20.2894 29.5897C19.6321 29.6084 18.8708 29.6177 17.3708 29.6204L16.3761 29.6217H14.6308C13.6578 29.6252 12.6848 29.615 11.7121 29.5911L11.4534 29.5831C11.1369 29.5711 10.8205 29.5573 10.5041 29.5417C9.08544 29.4751 8.11744 29.2511 7.26677 28.9217C6.37721 28.5872 5.57136 28.0625 4.90544 27.3844C4.2267 26.7182 3.70159 25.9119 3.36677 25.0217C3.03744 24.1724 2.81344 23.2044 2.74677 21.7844L2.70677 20.8351L2.70011 20.5764C2.67553 19.6042 2.66442 18.6316 2.66677 17.6591V14.9177C2.66308 13.9452 2.67286 12.9727 2.69611 12.0004L2.70544 11.7417C2.71611 11.4417 2.72944 11.1471 2.74544 10.7924C2.81211 9.37241 3.03611 8.40574 3.36544 7.55508C3.70103 6.66468 4.22707 5.85833 4.90677 5.19241C5.57231 4.51448 6.37769 3.98984 7.26677 3.65508C8.11744 3.32574 9.08411 3.10174 10.5041 3.03508C10.8588 3.01908 11.1548 3.00574 11.4534 2.99508L11.7121 2.98708C12.6844 2.96339 13.6569 2.95317 14.6294 2.95641L17.3708 2.95508ZM16.0001 9.62175C14.232 9.62175 12.5363 10.3241 11.2861 11.5744C10.0358 12.8246 9.33344 14.5203 9.33344 16.2884C9.33344 18.0565 10.0358 19.7522 11.2861 21.0025C12.5363 22.2527 14.232 22.9551 16.0001 22.9551C17.7682 22.9551 19.4639 22.2527 20.7142 21.0025C21.9644 19.7522 22.6668 18.0565 22.6668 16.2884C22.6668 14.5203 21.9644 12.8246 20.7142 11.5744C19.4639 10.3241 17.7682 9.62175 16.0001 9.62175ZM16.0001 12.2884C16.5254 12.2883 17.0456 12.3917 17.5309 12.5926C18.0162 12.7936 18.4572 13.0881 18.8287 13.4595C19.2002 13.8309 19.4949 14.2718 19.696 14.7571C19.8971 15.2423 20.0007 15.7625 20.0008 16.2877C20.0009 16.813 19.8975 17.3332 19.6965 17.8185C19.4956 18.3039 19.201 18.7449 18.8297 19.1164C18.4583 19.4879 18.0174 19.7826 17.5321 19.9837C17.0469 20.1848 16.5267 20.2883 16.0014 20.2884C14.9406 20.2884 13.9232 19.867 13.173 19.1168C12.4229 18.3667 12.0014 17.3493 12.0014 16.2884C12.0014 15.2275 12.4229 14.2101 13.173 13.46C13.9232 12.7098 14.9406 12.2884 16.0014 12.2884M23.0014 7.62175C22.5594 7.62175 22.1355 7.79734 21.8229 8.1099C21.5104 8.42246 21.3348 8.84638 21.3348 9.28841C21.3348 9.73044 21.5104 10.1544 21.8229 10.4669C22.1355 10.7795 22.5594 10.9551 23.0014 10.9551C23.4435 10.9551 23.8674 10.7795 24.18 10.4669C24.4925 10.1544 24.6681 9.73044 24.6681 9.28841C24.6681 8.84638 24.4925 8.42246 24.18 8.1099C23.8674 7.79734 23.4435 7.62175 23.0014 7.62175Z" fill="#F1F1F3"/>
</svg>
