<svg width="32" height="33" viewBox="0 0 32 33" fill="none" xmlns="http://www.w3.org/2000/svg">
<path d="M22.0745 17.4964L21.4678 18.1004C21.4678 18.1004 20.0238 19.535 16.0838 15.6177C12.1438 11.7004 13.5878 10.2657 13.5878 10.2657L13.9692 9.88438C14.9118 8.94838 15.0012 7.44438 14.1785 6.34572L12.4985 4.10172C11.4798 2.74172 9.51317 2.56172 8.34651 3.72172L6.25317 5.80172C5.67584 6.37772 5.28917 7.12172 5.33584 7.94838C5.45584 10.0644 6.41317 14.6151 11.7518 19.9244C17.4145 25.5537 22.7278 25.7777 24.8998 25.575C25.5878 25.511 26.1852 25.1617 26.6665 24.6817L28.5598 22.799C29.8398 21.5284 29.4798 19.3484 27.8425 18.4591L25.2958 17.0737C24.2212 16.4911 22.9145 16.6617 22.0745 17.4964Z" fill="#D39326"/>
</svg>
