<svg width="32" height="33" viewBox="0 0 32 33" fill="none" xmlns="http://www.w3.org/2000/svg">
<path d="M13.3332 20.2884L20.2532 16.2884L13.3332 12.2884V20.2884ZM28.7465 9.84841C28.9198 10.4751 29.0398 11.3151 29.1198 12.3817C29.2132 13.4484 29.2532 14.3684 29.2532 15.1684L29.3332 16.2884C29.3332 19.2084 29.1198 21.3551 28.7465 22.7284C28.4132 23.9284 27.6398 24.7017 26.4398 25.0351C25.8132 25.2084 24.6665 25.3284 22.9065 25.4084C21.1732 25.5017 19.5865 25.5417 18.1198 25.5417L15.9998 25.6217C10.4132 25.6217 6.93317 25.4084 5.55984 25.0351C4.35984 24.7017 3.5865 23.9284 3.25317 22.7284C3.07984 22.1017 2.95984 21.2617 2.87984 20.1951C2.7865 19.1284 2.7465 18.2084 2.7465 17.4084L2.6665 16.2884C2.6665 13.3684 2.87984 11.2217 3.25317 9.84841C3.5865 8.64841 4.35984 7.87508 5.55984 7.54174C6.1865 7.36841 7.33317 7.24841 9.09317 7.16841C10.8265 7.07508 12.4132 7.03508 13.8798 7.03508L15.9998 6.95508C21.5865 6.95508 25.0665 7.16841 26.4398 7.54174C27.6398 7.87508 28.4132 8.64841 28.7465 9.84841Z" fill="#F1F1F3"/>
</svg>
