<svg width="57" height="48" viewBox="0 0 57 48" fill="none" xmlns="http://www.w3.org/2000/svg">
<path d="M13.828 42.8271C16.8062 45.8053 21.2113 47.1125 26.0744 46.4612C30.9375 45.81 35.8601 43.2535 39.7593 39.3543C43.6585 35.4551 46.215 30.5325 46.8663 25.6694C47.5175 20.8063 46.2103 16.4011 43.2321 13.4229C40.2539 10.4448 35.8487 9.1375 30.9857 9.78877C26.1226 10.44 21.2 12.9965 17.3007 16.8957C13.4015 20.7949 10.8451 25.7176 10.1938 30.5806C9.54253 35.4437 10.8498 39.8489 13.828 42.8271Z" stroke="#1D1D1B" stroke-width="2" stroke-linecap="round" stroke-linejoin="round"/>
<path d="M42.955 13.7012C43.3249 31.8245 13.7359 24.4272 14.1057 42.5505" stroke="#1D1D1B" stroke-width="2" stroke-linecap="round" stroke-linejoin="round"/>
</svg>
